<?xml version="1.0" encoding="iso-8859-1"?>
<!-- Generator: Adobe Illustrator 19.0.0, SVG Export Plug-In . SVG Version: 6.00 Build 0)  -->
<svg version="1.1" id="Layer_1" xmlns="http://www.w3.org/2000/svg" xmlns:xlink="http://www.w3.org/1999/xlink" x="0px" y="0px"
	 viewBox="0 0 434.152 434.152" style="enable-background:new 0 0 434.152 434.152;" xml:space="preserve">
<g>
	<g>
		<g>
			<path d="M116.892,355.8l-0.126-0.08c-0.342-0.22-0.687-0.436-1.039-0.639c-3.894-2.249-8.121-3.389-12.565-3.389
				c-9.007,0-17.395,4.835-21.888,12.619c-3.927,6.801-4.467,14.901-1.481,22.227c2.032,4.986,5.73,9.267,10.413,12.052
				c3.974,2.364,8.302,3.563,12.864,3.563c9.008,0,17.396-4.839,21.906-12.65l0.101-0.174
				C131.771,377.733,128.177,363.006,116.892,355.8z M111.241,381.294l-0.135,0.231c-1.647,2.854-4.727,4.627-8.036,4.627
				c-1.667,0-3.198-0.43-4.684-1.313c-1.709-1.018-3.051-2.559-3.777-4.341c-1.122-2.754-0.938-5.661,0.521-8.188
				c1.645-2.85,4.722-4.619,8.031-4.619c1.622,0,3.115,0.407,4.561,1.242c0.139,0.08,0.274,0.169,0.423,0.264l0.137,0.087
				C112.335,371.873,113.626,377.163,111.241,381.294z"/>
			<path d="M330.991,351.692c-4.444,0-8.676,1.143-12.575,3.394c-0.35,0.202-0.689,0.416-1.019,0.626l-0.139,0.089
				c-11.283,7.205-14.878,21.931-8.195,33.509l0.131,0.225c4.494,7.783,12.882,12.618,21.89,12.618
				c4.563,0,8.892-1.199,12.861-3.563c4.683-2.784,8.381-7.065,10.415-12.056c2.985-7.324,2.444-15.425-1.481-22.223
				C348.385,356.527,339.998,351.692,330.991,351.692z M339.544,380.496c-0.728,1.784-2.068,3.326-3.78,4.344
				c-1.483,0.883-3.014,1.313-4.68,1.313h-0.001c-3.31,0-6.388-1.77-8.06-4.665l-0.093-0.161c-2.404-4.164-1.113-9.453,2.938-12.04
				l0.146-0.093c0.13-0.084,0.259-0.169,0.397-0.249c1.46-0.843,2.957-1.252,4.579-1.252c3.309,0,6.386,1.77,8.031,4.62
				C340.48,374.837,340.666,377.743,339.544,380.496z"/>
			<path d="M380.592,348.311c-10.192-17.652-29.198-28.619-49.601-28.619c-8.087,0-16.099,1.738-23.468,5.063l-45.371-78.585
				c0.774-3.325,1.197-6.784,1.197-10.342c0-3.321-0.366-6.556-1.043-9.677c13.636-4.131,25.67-11.84,35.941-23.1
				c52.732-57.815,41.205-190.18,40.688-195.786c-0.319-3.47-2.849-6.334-6.252-7.08c-3.401-0.743-6.899,0.796-8.642,3.814
				L217.076,189.27L110.11,4c-1.742-3.018-5.235-4.559-8.642-3.814c-3.403,0.746-5.933,3.61-6.252,7.08
				C94.7,12.872,83.173,145.22,135.902,203.041c10.586,11.608,23.052,19.431,37.21,23.46c-0.628,3.012-0.962,6.131-0.962,9.327
				c0,2.955,0.292,5.841,0.832,8.641l-46.353,80.286c-7.371-3.324-15.382-5.063-23.468-5.063c-20.402,0-39.408,10.967-49.6,28.619
				c-7.643,13.237-9.673,28.657-5.717,43.422c3.955,14.764,13.424,27.103,26.661,34.744c8.696,5.021,18.573,7.675,28.564,7.675
				c20.403,0,39.409-10.966,49.6-28.617c0.839-1.453,41.775-72.355,64.406-111.554c22.631,39.198,63.566,110.101,64.404,111.552
				c10.191,17.652,29.197,28.619,49.601,28.619c0.002,0,0.001,0,0.002,0c9.99,0,19.868-2.653,28.563-7.674
				c13.237-7.643,22.706-19.981,26.661-34.745C390.264,376.969,388.233,361.549,380.592,348.311z M324.185,35.75
				c0.591,41.159-3.29,118.743-37.771,156.532c-8.729,9.565-18.726,15.861-30.251,19.022c-5.346-8.344-13.323-14.849-22.763-18.309
				L324.185,35.75z M147.736,192.272c-34.48-37.793-38.361-115.368-37.77-156.522l91.036,157.679
				c-9.069,3.595-16.718,10.014-21.856,18.173C167.131,208.551,156.756,202.158,147.736,192.272z M138.814,397.533
				c-7.342,12.719-21.039,20.619-35.744,20.619c-7.187,0-14.297-1.912-20.564-5.531c-9.536-5.505-16.357-14.394-19.207-25.029
				c-2.85-10.636-1.387-21.744,4.118-31.28c7.343-12.718,21.039-20.619,35.744-20.619c7.187,0,14.298,1.913,20.568,5.533
				c0.558,0.321,1.1,0.658,1.637,1.001c1.84,1.177,4.079,1.549,6.203,1.029c2.121-0.518,3.938-1.88,5.031-3.771l44.335-76.792
				c6.197,8.469,15.237,14.73,25.707,17.361C185.026,317.496,139.699,396.003,138.814,397.533z M188.15,235.828
				c0-16.322,13.278-29.6,29.6-29.6s29.6,13.278,29.6,29.6s-13.279,29.6-29.6,29.6S188.15,252.15,188.15,235.828z M370.853,387.592
				c-2.85,10.636-9.671,19.524-19.207,25.03c-6.268,3.618-13.378,5.53-20.563,5.53c-0.001,0-0.002,0-0.002,0
				c-14.706,0-28.402-7.901-35.746-20.621c-0.882-1.526-45.989-79.654-67.668-117.203c10.547-2.35,19.725-8.358,26.132-16.625
				l43.752,75.781c1.093,1.892,2.91,3.254,5.031,3.771c2.122,0.519,4.362,0.146,6.203-1.029c0.537-0.343,1.079-0.68,1.64-1.003
				c6.268-3.618,13.379-5.531,20.565-5.531c14.705,0,28.401,7.901,35.744,20.619C372.24,365.848,373.703,376.956,370.853,387.592z"
				/>
		</g>
	</g>
</g>
<g>
</g>
<g>
</g>
<g>
</g>
<g>
</g>
<g>
</g>
<g>
</g>
<g>
</g>
<g>
</g>
<g>
</g>
<g>
</g>
<g>
</g>
<g>
</g>
<g>
</g>
<g>
</g>
<g>
</g>
</svg>
